HIERARCHY
ROOT Hips
{
  OFFSET -213.699 104.721 0.752556
  CHANNELS 6 Xposition Yposition Zposition Zrotation Xrotation Yrotation
  JOINT RightUpLeg
  {
    OFFSET -8.9458 -8.66707 0.101652
    CHANNELS 3 Zrotation Xrotation Yrotation
    JOINT RightLeg
    {
      OFFSET 0 -44.4227 1.3727
      CHANNELS 3 Zrotation Xrotation Yrotation
      JOINT RightFoot
      {
        OFFSET 0.253549 -42.0924 -1.46059
        CHANNELS 3 Zrotation Xrotation Yrotation
        JOINT RightToes
        {
          OFFSET 0.04 -4.41509 8.4991
          CHANNELS 3 Zrotation Xrotation Yrotation
          End Site
          {
            OFFSET -0.08 -0.137448 9.77979
          }
        }
      }
    }
  }
  JOINT Spine
  {
    OFFSET 0 11.8905 0
    CHANNELS 3 Zrotation Xrotation Yrotation
    JOINT Spine1
    {
      OFFSET 0 25.6574 0.127663
      CHANNELS 3 Zrotation Xrotation Yrotation
      JOINT HEad
      {
        OFFSET 0 8.73416 0.011341
        CHANNELS 3 Zrotation Xrotation Yrotation
        End Site
        {
          OFFSET -0.29 12.7742 2.51395
        }
      }
      JOINT LeftShoulder1
      {
        OFFSET 8.99 -0.362252 -0.22
        CHANNELS 3 Zrotation Xrotation Yrotation
        JOINT LeftArm
        {
          OFFSET 10.2827 -0.00337999 0.322123
          CHANNELS 3 Zrotation Xrotation Yrotation
          JOINT LeftForeArm
          {
            OFFSET 26.2597 0.099144 -1.42434
            CHANNELS 3 Zrotation Xrotation Yrotation
            JOINT LeftHand
            {
              OFFSET 22.0902 0.085362 1.02216
              CHANNELS 3 Zrotation Xrotation Yrotation
              End Site
              {
                OFFSET 13.419 -0.6 1.50291
              }
            }
          }
        }
      }
      JOINT RightShoulder
      {
        OFFSET -8.99 -0.362252 -0.22
        CHANNELS 3 Zrotation Xrotation Yrotation
        JOINT RightArm
        {
          OFFSET -10.2827 -0.00338 0.322123
          CHANNELS 3 Zrotation Xrotation Yrotation
          JOINT RightForeArm
          {
            OFFSET -26.364 0.099144 -1.42434
            CHANNELS 3 Zrotation Xrotation Yrotation
            JOINT RightHand
            {
              OFFSET -22.0324 0.085362 1.02216
              CHANNELS 3 Zrotation Xrotation Yrotation
              End Site
              {
                OFFSET -13.3284 -0.6 1.50291
              }
            }
          }
        }
      }
    }
  }
  JOINT LeftUpLeg
  {
    OFFSET 8.9458 -8.66707 0.101652
    CHANNELS 3 Zrotation Xrotation Yrotation
    JOINT LeftLeg
    {
      OFFSET 0 -44.4227 1.3727
      CHANNELS 3 Zrotation Xrotation Yrotation
      JOINT LeftFoot
      {
        OFFSET -0.253549 -42.0924 -1.46059
        CHANNELS 3 Zrotation Xrotation Yrotation
        JOINT LeftToes
        {
          OFFSET -0.04 -4.41509 8.4991
          CHANNELS 3 Zrotation Xrotation Yrotation
          End Site
          {
            OFFSET 0.08 -0.047448 9.77979
          }
        }
      }
    }
  }
}
MOTION
Frames:	7
Frame Time:	0.0333333
-233.819 104.486 5.22705 -1.59447 -1.13934 91.2285 -1.87109 -8.55673 -0.882513 -1.78414 13.6544 -8.02213 4.61356 -2.82348 -0.335996 0.0462048 0.000530889 0.662642 -6.18625 8.14212 -1.77901 4.6409 1.94076 -3.05519 2.5536 1.04008 -10.9392 -30.2957 -3.19734 12.2846 -82.4031 -34.8188 -41.7569 -168.404 71.4885 166.128 7.73499 9.0699 -8.50222 29.6303 -1.68301 -8.82256 44.3167 -14.7074 8.95949 5.48298 50.908 11.7838 -0.65797 9.90427 1.81149 0.108481 -9.20591 1.24872 1.44257 15.5123 11.3775 3.27501 -6.64556 -0.00451535 -1.32942e-009 8.75233e-006 -1.47059e-008 
-233.676 104.45 4.45855 -1.48366 -0.974789 90.6148 -1.94037 -9.13175 0.0264938 -2.34949 15.0889 -8.91009 3.30519 -3.60176 -0.263357 0.0462048 0.000530889 0.662642 -7.06513 8.30341 -1.92794 5.32798 1.88075 -3.40523 2.82588 1.59284 -10.0198 -29.8752 -3.02247 11.9017 -83.7777 -34.1509 -42.3107 -169.591 70.2411 167.725 8.46951 8.96471 -8.76021 29.8585 -1.77268 -9.03828 43.6772 -14.8673 7.8055 5.42772 50.2668 11.8854 -0.634873 9.9076 1.91476 -0.655984 -8.63986 0.96705 1.48857 14.9151 12.3118 3.96171 -6.49048 -0.0164994 -1.32942e-009 8.75233e-006 -1.47059e-008 
-233.451 104.419 3.83099 -1.2687 -0.956678 90.1217 -1.6553 -9.62588 1.03622 -2.35633 16.6997 -11.3611 2.1709 -4.56486 -0.209999 0.0462048 0.000530889 0.662642 -7.74707 8.39189 -2.10545 6.02255 2.09062 -3.78755 3.04244 1.90038 -9.06212 -29.5696 -2.90807 11.6524 -84.5522 -33.4007 -42.7577 -170.371 69.2229 168.583 8.57039 8.93976 -8.94893 30.1063 -1.84777 -9.20805 43.2684 -16.9005 6.94764 5.97216 51.4154 10.8938 -0.557318 9.91362 2.21299 -0.941445 -8.06303 1.07118 1.30555 14.6584 12.6748 4.21321 -6.70008 -0.0128097 -1.32942e-009 8.75233e-006 -1.47059e-008 
-233.144 104.484 3.33622 -0.979036 -1.22208 90.0227 -1.082 -9.77664 0.889232 -1.8038 17.9528 -13.7952 1.75573 -5.47092 -0.190893 0.0462048 0.000530889 0.662642 -8.14502 8.54205 -2.38583 6.85262 2.33553 -4.29491 3.05525 2.12252 -8.21844 -29.3536 -2.77324 11.322 -84.8238 -32.7975 -42.9934 -170.035 69.6329 168.017 8.38901 8.95605 -9.04534 30.2874 -1.93153 -9.40994 42.9381 -19.9596 6.12564 6.68982 53.782 9.37791 -0.494538 9.91851 2.39828 -0.939815 -7.36105 1.17914 1.24948 14.3319 12.6996 4.45106 -6.84637 -0.0148551 -1.32942e-009 8.75233e-006 -1.47059e-008 
-232.769 104.616 2.96052 -0.726048 -1.63243 90.1925 -0.212793 -9.62331 -0.151462 -1.08775 18.6936 -14.7836 1.91151 -6.46858 -0.183531 0.0462048 0.000530889 0.662642 -8.21117 8.71042 -2.6602 7.59822 2.40791 -4.75012 2.90046 2.46884 -7.54125 -29.1665 -2.65132 11.0182 -84.9548 -32.3897 -43.1783 -169.215 70.5955 166.966 8.48034 8.93715 -9.15771 30.4023 -2.00745 -9.59927 42.4239 -22.6964 4.94725 7.12906 55.9505 8.12752 -0.443078 9.92172 2.347 -0.798984 -6.59065 1.15819 1.4039 13.7762 12.6044 4.58013 -6.70951 -0.0174302 -1.32942e-009 8.75233e-006 -1.47059e-008 
-232.325 104.721 2.70261 -0.619777 -1.98539 90.0777 0.85809 -9.28883 -0.637793 -0.569884 18.8579 -14.3836 2.63301 -7.53071 -0.17321 0.0462048 0.000530889 0.662642 -8.14278 8.56564 -2.80474 7.95214 2.52399 -4.96409 2.80441 2.94038 -6.77819 -28.9766 -2.63094 11.0001 -85.0408 -32.0497 -43.4567 -168.767 71.0653 166.384 8.58426 8.91196 -9.34016 30.4955 -2.02403 -9.62919 41.7181 -24.8803 3.56056 7.4885 57.6954 7.00694 -0.299825 9.93102 2.30018 -0.62525 -5.90304 1.19444 1.51903 13.1972 12.6021 4.4075 -6.58622 -0.016906 -1.32942e-009 8.75233e-006 -1.47059e-008 
-231.807 104.755 2.55143 -0.675537 -2.04626 89.6719 1.81675 -8.74478 -0.209657 -0.368153 18.2125 -13.3343 3.62184 -8.0753 -0.162291 0.0462048 0.000530889 0.662642 -8.27136 8.01271 -2.84911 7.98822 2.84781 -5.00493 2.91544 3.41316 -5.82959 -28.8011 -2.65919 11.1174 -84.7195 -31.8008 -43.608 -167.778 71.9829 165.075 8.2004 8.95098 -9.50056 30.4946 -1.97428 -9.49348 41.0984 -26.7812 2.34863 8.11903 59.392 5.51797 -0.0930769 9.9446 2.29551 -0.585381 -5.34852 1.34239 1.42928 12.7224 12.8395 4.15294 -6.68192 -0.0108043 -1.32942e-009 8.75233e-006 -1.47059e-008 
